<?xml version="1.0" standalone="no"?>
<!DOCTYPE svg PUBLIC "-//W3C//DTD SVG 20010904//EN"
 "http://www.w3.org/TR/2001/REC-SVG-20010904/DTD/svg10.dtd">
<svg version="1.0" xmlns="http://www.w3.org/2000/svg"
 width="627.000000pt" height="627.000000pt" viewBox="0 0 627.000000 627.000000"
 preserveAspectRatio="xMidYMid meet">
<metadata>
Created by potrace 1.11, written by Peter Selinger 2001-2013
</metadata>
<g transform="translate(0.000000,627.000000) scale(0.100000,-0.100000)"
fill="#000000" stroke="none">
<path d="M2379 6006 c-20 -7 -65 -32 -100 -55 -77 -51 -104 -58 -155 -36 -89
38 -209 21 -263 -36 -57 -60 -100 -187 -121 -354 -16 -131 -14 -128 -210 -332
-131 -135 -180 -200 -180 -236 0 -18 22 -104 49 -192 27 -88 54 -181 60 -206
6 -26 24 -68 41 -95 16 -27 39 -81 49 -119 11 -39 27 -84 35 -100 9 -17 16
-40 16 -53 0 -13 11 -51 24 -85 13 -34 27 -74 30 -89 3 -15 20 -56 36 -91 38
-83 87 -211 134 -354 44 -131 79 -185 142 -215 37 -19 44 -26 40 -44 -7 -26
-67 -156 -256 -549 -145 -303 -190 -414 -190 -469 0 -43 -22 -96 -70 -165 -59
-86 -111 -129 -237 -195 -39 -21 -80 -47 -90 -58 -18 -20 -17 -21 21 -54 34
-30 168 -94 195 -94 6 0 11 -4 11 -10 0 -5 13 -10 29 -10 16 0 41 -4 55 -9 38
-15 112 27 160 91 46 63 96 166 130 272 34 102 97 222 144 271 40 41 135 197
211 345 87 168 292 479 389 590 l40 45 123 0 c202 -1 548 -22 561 -34 8 -7 95
-196 186 -401 l47 -105 3 -218 4 -217 -71 0 c-51 0 -97 8 -161 29 -86 28 -91
28 -112 12 -13 -10 -43 -29 -68 -42 -39 -22 -224 -130 -680 -399 -110 -64
-366 -212 -440 -253 -51 -29 -117 -115 -129 -168 -26 -116 -33 -377 -11 -429
10 -24 28 -38 76 -60 95 -43 216 -85 342 -121 120 -33 133 -33 219 2 25 10 40
11 65 2 18 -6 161 -53 318 -103 157 -50 293 -96 302 -101 10 -5 27 -9 37 -9
11 0 23 -4 26 -10 3 -5 15 -10 26 -10 25 0 97 -36 127 -63 12 -11 22 -29 22
-39 0 -10 6 -34 14 -53 15 -35 69 -70 131 -86 17 -4 53 -16 80 -28 224 -92
288 -107 352 -79 30 13 130 75 149 93 6 5 37 33 70 60 53 45 151 132 164 145
3 3 54 48 113 100 120 105 156 138 302 281 140 137 247 248 278 289 60 81 112
404 76 472 -16 30 -34 45 -89 69 -67 30 -286 89 -352 94 -32 3 -84 7 -115 9
-32 3 -80 10 -107 16 -89 20 -348 99 -362 111 -11 9 -14 46 -14 159 l0 147 83
129 c101 158 238 377 333 533 45 74 84 125 107 141 50 36 83 92 102 172 14 63
14 76 1 122 -8 28 -27 67 -42 86 -26 34 -88 161 -113 230 -7 19 -17 44 -22 55
-27 65 -118 349 -169 525 -55 196 -71 272 -85 405 -8 76 -33 133 -76 173 -40
37 -64 40 -174 15 -54 -11 -79 -13 -86 -6 -10 10 -16 36 -43 164 -3 13 -21
105 -41 204 -20 99 -52 253 -73 343 l-37 162 -65 -4 c-36 -3 -135 -8 -220 -12
-85 -3 -171 -7 -190 -9 -71 -7 -310 -16 -460 -18 l-155 -2 -45 87 c-53 102
-65 117 -107 135 -39 16 -48 16 -94 -1z m72 -145 c48 -49 38 -85 -28 -96 -80
-13 -108 33 -57 94 32 39 48 39 85 2z m-442 -95 c9 -11 6 -21 -15 -45 -30 -36
-49 -39 -64 -12 -14 27 -13 37 6 55 19 20 58 21 73 2z m2039 -1978 c84 -215
90 -261 61 -458 -12 -85 -45 -170 -65 -170 -17 0 -62 95 -109 230 -34 97 -36
111 -32 186 3 44 13 109 22 145 30 118 56 199 63 199 4 0 31 -60 60 -132z"/>
</g>
</svg>
